<?xml version="1.0" encoding="UTF-8"?>
<!DOCTYPE svg PUBLIC "-//W3C//DTD SVG 1.1//EN" "http://www.w3.org/Graphics/SVG/1.1/DTD/svg11.dtd">
<!-- Creator: CorelDRAW -->
<svg xmlns="http://www.w3.org/2000/svg" xml:space="preserve" width="50.2mm" height="50.2mm" version="1.1" style="shape-rendering:geometricPrecision; text-rendering:geometricPrecision; image-rendering:optimizeQuality; fill-rule:evenodd; clip-rule:evenodd"
viewBox="0 0 5937.66 5937.66"
 xmlns:xlink="http://www.w3.org/1999/xlink"
 xmlns:xodm="http://www.corel.com/coreldraw/odm/2003">
 <defs>
  <style type="text/css">
   <![CDATA[
    .str0 {stroke:black;stroke-width:23.66;stroke-miterlimit:22.9256}
    .fil0 {fill:black}
    .fil1 {fill:white;fill-rule:nonzero}
   ]]>
  </style>
 </defs>
 <g id="Слой_x0020_1">
  <metadata id="CorelCorpID_0Corel-Layer"/>
  <circle class="fil0 str0" cx="2968.83" cy="2968.83" r="2957"/>
  <path class="fil1" d="M3013.65 886.25c581.42,0 947.53,180.58 1098.34,543.71 42.66,88.31 64.5,147.84 64.5,176.6l-367.11 0 0 111.12 392.9 0 0 -5.95c0,-19.85 -8.93,-54.57 -25.8,-105.17l670.71 0 0 111.12 -635.98 0 0 7.94c32.74,155.77 55.56,323.46 69.44,503.03 0,9.92 -254.99,28.78 -763.97,55.57l0 -5.95c0,-463.35 -159.74,-694.53 -477.24,-694.53l-81.36 0c-238.12,0 -383.97,100.21 -435.57,302.62 -42.66,169.66 -64.49,393.88 -64.49,670.71l0 567.53 -5.96 84.33 -263.92 0 0 132.95 263.92 0 0 1009.05 1122.16 0 0 -1049.72 642.94 0 0 1049.72 -358.18 0 0 644.92 -747.12 0 0 55.56 -581.42 0 0 -55.56 -589.35 0 0 -322.47 391.91 0 0 -139.89 -587.37 0 0 -476.26 -253 0 0 -587.37 133.94 0c-5.95,-244.07 -8.93,-435.57 -8.93,-575.46 0,-634.01 31.75,-1032.87 93.26,-1197.56 56.56,-189.51 149.83,-353.22 278.81,-491.13 231.18,-213.32 572.49,-319.47 1023.93,-319.47zm-506.01 3255.34l34.73 0 0 144.86 84.33 0 0 43.65 -119.06 0c-7.94,0 -11.91,-3.96 -11.91,-13.89l0 -159.74c0,-9.92 3.97,-14.88 11.91,-14.88zm875.11 0l43.65 0c22.83,19.84 34.73,37.7 34.73,55.56 3.97,0 19.85,-18.85 49.62,-55.56l34.72 0 0 14.88c-32.74,42.66 -49.61,72.42 -49.61,89.29 5.96,0 23.81,25.8 55.57,76.4l0 7.94 -40.68 0 -49.62 -54.56c-17.86,32.74 -30.75,50.6 -40.68,54.56l-43.66 0c9.92,-18.84 30.76,-51.59 63.5,-98.22l-57.54 -84.33 0 -5.95zm575.46 253c46.64,11.91 69.45,24.8 69.45,40.68l0 28.78 -28.78 0 -26.79 -28.78 -28.77 0c-9.92,1.99 -13.9,6.94 -13.9,14.88l0 13.9c71.44,13.89 107.16,28.77 107.16,46.63l0 22.83c0,37.7 -21.82,55.56 -64.5,55.56l-28.77 0c-24.8,0 -45.64,-13.89 -60.52,-40.68l0 -28.78 40.68 0c0,22.83 12.9,34.73 40.68,34.73l7.94 0c5.96,0 12.9,-6.94 20.84,-20.83 0,-4.97 -32.74,-21.83 -99.21,-48.62l-4.97 -14.88 0 -34.73c0,-15.87 22.83,-28.77 69.45,-40.68z"/>
 </g>
</svg>
